<?xml version="1.0" encoding="UTF-8"?> <!-- Generator: Adobe Illustrator 25.0.1, SVG Export Plug-In . SVG Version: 6.00 Build 0) --> <svg xmlns="http://www.w3.org/2000/svg" xmlns:xlink="http://www.w3.org/1999/xlink" version="1.1" id="Layer_1" x="0px" y="0px" viewBox="0 0 191 28.6" style="enable-background:new 0 0 191 28.6;" xml:space="preserve"> <style type="text/css"> .st0{fill:#9C1D22;} </style> <g id="Artwork_3"> <g> <g> <g> <g> <path class="st0" d="M34.1,0H2.4C1.1,0,0,1.1,0,2.4l0,0l0,0v23.8c0,1.3,1.1,2.4,2.4,2.4l0,0h31.7c1.3,0,2.4-1.1,2.4-2.4l0,0 l0,0V2.4C36.5,1.1,35.4,0,34.1,0L34.1,0L34.1,0 M29.9,23.1c-0.4,0.2-0.8,0.3-1.2,0.3c-0.8,0-1.5-0.4-1.9-1.1l0,0 c-0.8,1.1-2.3,1.3-3.4,0.5c-0.2-0.2-0.4-0.4-0.6-0.6c-0.7,1-2.1,1.4-3.2,0.7c-0.5-0.3-0.8-0.7-1-1.3L18.4,22 c-0.7,1.1-2.1,1.5-3.2,0.9c-0.5-0.3-0.8-0.7-1-1.3L14,22c-0.7,1.1-2.1,1.5-3.2,0.9c-0.5-0.3-0.8-0.8-1-1.3L9.5,22 c-0.7,1.1-2.1,1.5-3.2,0.9c-1.1-0.7-1.5-2.1-0.9-3.2L13,6.4c0.6-1.1,2.1-1.6,3.2-0.9c0.5,0.3,0.9,0.8,1.1,1.3l0.2-0.4 c0.6-1.1,2.1-1.6,3.2-0.9c0.5,0.3,0.9,0.8,1.1,1.3L22,6.5c0.6-1.1,2.1-1.6,3.2-1l0,0c0.5,0.3,0.9,0.8,1.1,1.3l0.2-0.4l0,0 c0.3-0.5,0.7-0.8,1.2-1h0.1l0.3-0.1H29l0.3,0.1h0.1c0.1,0,0.3,0.1,0.4,0.2l0,0C30.5,6,31,6.8,31,7.6v13.5 C31,21.9,30.5,22.7,29.9,23.1"></path> <path class="st0" d="M106,4.6H91.1c-0.6,0-1.2,0.2-1.7,0.7c-0.1,0.1-0.2,0.2-0.2,0.2C89,5.6,89,5.7,88.9,5.8 c-0.2,0.4-0.4,0.9-0.4,1.3v11.5h-2.4l-1.8-3c5.4-3.1,2.9-11.1-2.9-11.1h-6.8c-0.3,0-0.6,0.1-0.9,0.2c-0.1,0-0.2,0.1-0.3,0.2 C73.2,5,73,5.1,72.8,5.3l0,0l-0.2,0.3c-0.4,0.5-0.6,1-0.6,1.6v11.6h-8.6v-2.2H68c1.4,0,2.6-1.2,2.6-2.6s-1.2-2.6-2.6-2.6h-4.5 V9.7h5.1c1.4,0,2.6-1.2,2.6-2.6S70,4.5,68.6,4.5l0,0h-8.1c-0.9,0-1.7,0.5-2.2,1.3l-3.1,5.6V7.1c0.1-1.4-1-2.5-2.4-2.6l0,0h-0.1 c-1,0-2,0.5-2.6,1.3L42.2,20c-0.7,1.2-0.3,2.8,0.9,3.5s2.8,0.3,3.5-0.9l3.4-6.1v5c0,1.4,1.2,2.6,2.6,2.6l0,0 c0.6,0,1.1-0.2,1.5-0.5l0.1-0.1l0,0c0.2-0.2,0.4-0.4,0.6-0.7l3.4-6.2v4.9c0,1.4,1.1,2.6,2.6,2.6h13.9c1.4,0,2.6-1.2,2.6-2.6 V9.8h4.1c1.1,0,1.3,1.8,0.1,1.8h-1.2c-1.3,0-2.4,1.1-2.4,2.5c0,0.4,0.1,0.9,0.4,1.3l3.8,7c0.5,0.7,0.7,1.7,2.8,1.8s6.2,0,6.2,0 c1.4,0,2.6-1.1,2.6-2.5l0,0V9.6h3.8v11.8c-0.1,1.4,1,2.6,2.4,2.7s2.6-1,2.7-2.4l0,0c0-0.1,0-0.2,0-0.3V9.7h3.4 c1.4,0,2.6-1.2,2.6-2.6S107.4,4.5,106,4.6"></path> <path class="st0" d="M190.1,19.2c-0.5-0.5-1.3-0.9-2.1-0.9h-5V9.8c0.1-1.4-0.4-2.7-1.4-3.8c-1.1-1-2.5-1.5-3.9-1.4 c-2,0-3.7,1.1-4.7,2.8l-5,9.1c-0.5,0.9-1.3,1.5-2.3,1.8c-1.1,0.3-2.2,0.1-3.1-0.4c-1.9-1.1-2.6-3.6-1.5-5.5s3.6-2.6,5.5-1.5 c1.3,1,3.1,0.7,4.1-0.6s0.7-3.1-0.6-4.1c-0.2-0.1-0.4-0.2-0.6-0.3c-4.7-2.7-10.7-1.1-13.4,3.6c-0.2,0.4-0.4,0.8-0.6,1.1V7.5 c0-1.6-1.3-2.9-2.9-2.9s-2.9,1.3-2.9,2.9v2.8c-1.5-3.8-5.2-5.8-10.9-5.8H136c-1.5,0-2.8,1.2-2.8,2.7l0,0v11.2h-7.6v-1.5h3.6 c1.6,0,2.9-1.2,2.9-2.8c0-0.8-0.3-1.6-0.8-2.1l0,0c-0.5-0.5-1.3-0.9-2.1-0.9h-3.6v-0.8h4.2c0.8,0,1.5-0.3,2.1-0.9 c0.5-0.5,0.9-1.3,0.9-2.1c0-0.7-0.3-1.4-0.8-1.9c-0.6-0.6-1.4-0.9-2.2-0.9h-7.2c-1.1-0.1-2.1,0.5-2.7,1.4l-2.6,4.4v-3 c0-1.6-1.3-2.9-2.9-2.9c-1.1,0-2,0.6-2.5,1.5l-7.6,14c-0.8,1.4-0.4,3.2,1,4l0,0l0,0c0.7,0.4,1.5,0.5,2.2,0.3 c0.8-0.2,1.4-0.7,1.8-1.4l2.4-4.5v3.1c0,1.6,1.3,2.9,2.9,2.9l0,0l0,0c1,0,2-0.5,2.6-1.5l2.6-4.7v3.1l0,0c0,1.6,1.4,2.9,3,2.9 h13.4c0.8,0,1.5-0.3,2.1-0.9c0.4-0.4,0.7-0.9,0.8-1.4c0.3,1.6,1.8,2.6,3.4,2.4c3.3-0.5,6-2.7,7.3-5.8v2.9c0,0.8,0.3,1.5,0.9,2 c1.1,1.1,2.9,1.1,4,0l0,0c0.5-0.6,0.8-1.3,0.9-2.1V18c0.8,2,2.3,3.7,4.2,4.8c3.3,1.9,8.3,2,11.5-1.4h5.9 c0.3,1.5,1.5,2.5,2.9,2.7h8c1.6,0,2.9-1.3,2.9-2.9l0,0C191.1,20.5,190.7,19.8,190.1,19.2 M139.2,20.6V10.1c3.3,0,5,1.1,5.5,3.5 c0.2,1.1-0.1,2.3-0.7,3.2c-0.6,0.9-1.5,1.4-2.5,1.6C140.4,18.7,139.5,19.5,139.2,20.6 M148.2,19.6c-1.3,2.1-3.5,3.5-5.9,3.8 c-1.1,0.2-2.2-0.6-2.4-1.7s0.6-2.2,1.7-2.4c1.2-0.2,2.3-1,3-2c0.8-1.1,1.1-2.5,0.8-3.9c-0.6-2.9-2.8-4.3-6.7-4.2h-0.4v12 c0,1.2-1,2.1-2.1,2.1h-13.4c-1.2,0-2.1-1-2.2-2.1V15l-4.1,7.5c-0.4,0.6-1.1,1-1.8,1c-1.1,0-2.1-0.9-2.1-2.1l0,0l0,0v-6.5 l-4,7.5c-0.3,0.5-0.8,0.9-1.3,1s-1.1,0.1-1.6-0.2c-1-0.6-1.3-1.8-0.8-2.8l0,0l0,0l7.6-14c0.6-1,1.8-1.3,2.8-0.8 c0.6,0.4,1,1,1,1.8v6.1l4.1-7.1c0.4-0.7,1.1-1.1,1.9-1h7.2c0.6,0,1.2,0.2,1.7,0.7c0.4,0.3,0.6,0.8,0.6,1.3 c0,1.1-0.9,2.1-2.1,2.1l0,0h-5V12h4.4c1.2,0.1,2,1.1,2,2.3c-0.1,1.1-0.9,1.9-2,2h-4.4v3.2h9.2V7.4c0-1.1,0.8-2,1.9-2l0,0h3 c6.3,0,9.9,2.5,10.7,7.4C149.9,15.2,149.5,17.6,148.2,19.6 M154.7,21.4c0,1.1-0.9,2-2,2.1c-1.2,0-2.1-0.9-2.1-2.1V7.5 c0-0.5,0.2-1.1,0.6-1.5c0.4-0.4,0.9-0.6,1.5-0.6c1.1,0,2.1,0.9,2.1,2.1l0,0l0,0L154.7,21.4z M188.1,23.4h-8 c-1.2-0.1-2-1.1-2.1-2.3v-0.4h-7.1l-0.1,0.1c-2.9,3.2-7.6,3.1-10.6,1.3c-4.3-2.5-5.8-8-3.3-12.3s8-5.8,12.3-3.3 c1,0.5,1.4,1.8,0.9,2.8s-1.7,1.4-2.7,0.9c-0.1,0-0.1-0.1-0.2-0.1c-2.3-1.4-5.3-0.6-6.6,1.7s-0.6,5.3,1.7,6.6c0,0,0,0,0.1,0 c1.1,0.7,2.5,0.9,3.8,0.5c1.2-0.3,2.2-1.1,2.8-2.2l5-9.1c0.8-1.5,2.3-2.4,3.9-2.4c1.2-0.1,2.4,0.4,3.3,1.2 c0.8,0.9,1.2,2,1.1,3.2v9.5h5.9c0.6,0,1.1,0.2,1.5,0.6c0.8,0.8,0.8,2.1,0,2.9C189.2,23.2,188.6,23.4,188.1,23.4"></path> <path class="st0" d="M177.6,10.2c-0.2-0.1-0.4,0-0.5,0.2l-2.9,5.5c-0.1,0.1-0.1,0.3,0,0.4s0.2,0.2,0.4,0.2h2.9 c0.1,0,0.2,0,0.3-0.1s0.1-0.2,0.1-0.3v-5.5C177.9,10.4,177.8,10.2,177.6,10.2 M177.1,15.7h-1.8l1.8-3.4V15.7z"></path> <path class="st0" d="M7.3,22.4c-0.8,0-1.5-0.6-1.5-1.4c0-0.3,0.1-0.5,0.2-0.8l7.8-13.4c0.5-0.7,1.4-0.9,2.1-0.4 c0.6,0.4,0.9,1.2,0.5,1.9L8.6,21.7C8.4,22.2,7.9,22.4,7.3,22.4"></path> <path class="st0" d="M16.4,22.4c-0.3,0-0.5-0.1-0.7-0.2c-0.7-0.4-0.9-1.3-0.5-2L23,6.8c0.4-0.7,1.3-0.9,2-0.5s0.9,1.3,0.5,2 l0,0l-7.8,13.4C17.4,22.2,16.9,22.5,16.4,22.4"></path> <path class="st0" d="M26.3,15.6L26.3,15.6l-2.8,4.6l0,0c-0.4,0.7-0.1,1.6,0.6,2s1.6,0.1,2-0.6c0.1-0.2,0.2-0.5,0.2-0.7 L26.3,15.6C26.4,15.6,26.4,15.6,26.3,15.6L26.3,15.6"></path> <path class="st0" d="M187.9,6.3c0,1-0.8,1.9-1.8,1.9s-1.9-0.8-1.9-1.8s0.8-1.9,1.8-1.9h0.1C187.1,4.5,187.9,5.3,187.9,6.3 C187.9,6.2,187.9,6.2,187.9,6.3L187.9,6.3 M184.7,6.2c0,0.8,0.6,1.4,1.3,1.4l0,0h0.1c0.8,0,1.4-0.6,1.4-1.4l0,0l0,0 c0-0.8-0.7-1.4-1.4-1.4c-0.6,0-1.2,0.4-1.3,1.1C184.7,6.1,184.7,6.2,184.7,6.2 M185.8,7.2h-0.4V5.4c0.2,0,0.5-0.1,0.7-0.1 s0.4,0,0.6,0.1c0.1,0.1,0.2,0.2,0.2,0.4c0,0.2-0.2,0.4-0.4,0.4l0,0c0.2,0.1,0.3,0.2,0.3,0.4c0,0.2,0.1,0.3,0.1,0.4h-0.4 c-0.1-0.1-0.1-0.3-0.1-0.4c0-0.2-0.2-0.3-0.4-0.3h-0.2L185.8,7.2L185.8,7.2z M185.8,6.2h0.2c0.2,0,0.4-0.1,0.4-0.3 s-0.1-0.3-0.4-0.3h-0.2V6.2z"></path> </g> </g> </g> </g> </g> </svg> 